{"title":"TheLootingOfAmerica@Mastitorrents","uid":5938737,"size":251307458,"categoryP":"video","categoryS":"tv_shows","magnet":"?xt=urn:btih:0101d66b2425fa5299eb77350f53c482de172010&amp;dn=TheLootingOfAmerica%40Mastitorrents&amp;tr=udp%3A%2F%2Ftracker.openbittorrent.com%3A80&amp;tr=udp%3A%2F%2Fopen.demonii.com%3A1337&amp;tr=udp%3A%2F%2Ftracker.coppersurfer.tk%3A6969&amp;tr=udp%3A%2F%2Fexodus.desync.com%3A6969","seeders":0,"leechers":0,"uploader":"amanrulz","files":1,"time":1289058529,"description":"mastitorrents.com\n &lt;a href=&quot;\nhttp://mastitorrents.com/forums/index.php&quot; rel=&quot;nofollow&quot; target=&quot;_NEW&quot;&gt;\nhttp://mastitorrents.com/forums/index.php&lt;/a&gt;\n\nMediainfo:\nVideo\nFormat : xvid\nDuration : 56mn 21s\nBit rate : 453 Kbps\nWidth : 640 pixels\nHeight : 360 pixels\nDisplay aspect ratio : 16:9\nFrame rate : 29.970 fps\nBits/(Pixel*Frame) : 0.066\nStream size : 183 MiB (76%)\nAudio\nCodec ID/Hint : MP3\nBit rate mode : Constant\nBit rate : 128 Kbps\nChannel(s) : 2 channels\nSampling rate : 44.1 KHz\nStream size : 51.6 MiB (22%)\nAlignment : Aligned on interleaves\nA person, who has worked for government for many years, describes in this interview how Corporates are\n- looting America\n- Using America's military to force the rest of world to use US $ as reserve currency, even though US $ is falling in value.\n- Using America's military power to control oil.\n\nThe video is also available on youtube in multiple parts. Here the whole interview is present together.","torrent":{"xt":"urn:btih:0101d66b2425fa5299eb77350f53c482de172010","amp;dn":"TheLootingOfAmerica%40Mastitorrents","amp;tr":["udp%3A%2F%2Ftracker.openbittorrent.com%3A80","udp%3A%2F%2Fopen.demonii.com%3A1337","udp%3A%2F%2Ftracker.coppersurfer.tk%3A6969","udp%3A%2F%2Fexodus.desync.com%3A6969"],"infoHash":"0101d66b2425fa5299eb77350f53c482de172010","infoHashBuffer":{"type":"Buffer","data":[1,1,214,107,36,37,250,82,153,235,119,53,15,83,196,130,222,23,32,16]},"announce":[],"urlList":[]}}